<?xml version="1.0" standalone="no"?>
<svg xmlns:xlink="http://www.w3.org/1999/xlink" id="wave" style="transform:rotate(0deg); transition: 0.3s" viewBox="0 0 1440 130" version="1.1" xmlns="http://www.w3.org/2000/svg"><defs><linearGradient id="sw-gradient-0" x1="0" x2="0" y1="1" y2="0"><stop stop-color="rgba(45.418, 25.385, 157.418, 1)" offset="0%"/><stop stop-color="rgba(0, 242.272, 250.767, 1)" offset="100%"/></linearGradient></defs><path style="transform:translate(0, 0px); opacity:1" fill="url(#sw-gradient-0)" d="M0,104L10.9,104C21.8,104,44,104,65,99.7C87.3,95,109,87,131,82.3C152.7,78,175,78,196,67.2C218.2,56,240,35,262,34.7C283.6,35,305,56,327,62.8C349.1,69,371,61,393,52C414.5,43,436,35,458,45.5C480,56,502,87,524,99.7C545.5,113,567,108,589,88.8C610.9,69,633,35,655,21.7C676.4,9,698,17,720,34.7C741.8,52,764,78,785,75.8C807.3,74,829,43,851,36.8C872.7,30,895,48,916,45.5C938.2,43,960,22,982,13C1003.6,4,1025,9,1047,8.7C1069.1,9,1091,4,1113,15.2C1134.5,26,1156,52,1178,67.2C1200,82,1222,87,1244,86.7C1265.5,87,1287,82,1309,71.5C1330.9,61,1353,43,1375,39C1396.4,35,1418,43,1440,45.5C1461.8,48,1484,43,1505,47.7C1527.3,52,1549,65,1560,71.5L1570.9,78L1570.9,130L1560,130C1549.1,130,1527,130,1505,130C1483.6,130,1462,130,1440,130C1418.2,130,1396,130,1375,130C1352.7,130,1331,130,1309,130C1287.3,130,1265,130,1244,130C1221.8,130,1200,130,1178,130C1156.4,130,1135,130,1113,130C1090.9,130,1069,130,1047,130C1025.5,130,1004,130,982,130C960,130,938,130,916,130C894.5,130,873,130,851,130C829.1,130,807,130,785,130C763.6,130,742,130,720,130C698.2,130,676,130,655,130C632.7,130,611,130,589,130C567.3,130,545,130,524,130C501.8,130,480,130,458,130C436.4,130,415,130,393,130C370.9,130,349,130,327,130C305.5,130,284,130,262,130C240,130,218,130,196,130C174.5,130,153,130,131,130C109.1,130,87,130,65,130C43.6,130,22,130,11,130L0,130Z"/></svg>