<?xml version="1.0" standalone="no"?>
<svg xmlns:xlink="http://www.w3.org/1999/xlink" id="wave" style="transform:rotate(0deg); transition: 0.3s" viewBox="0 0 1440 100" version="1.1" xmlns="http://www.w3.org/2000/svg"><defs><linearGradient id="sw-gradient-0" x1="0" x2="0" y1="1" y2="0"><stop stop-color="rgba(62, 126.506, 243, 1)" offset="0%"/><stop stop-color="rgba(164.541, 230.276, 199.101, 1)" offset="100%"/></linearGradient></defs><path style="transform:translate(0, 0px); opacity:1" fill="url(#sw-gradient-0)" d="M0,50L10,51.7C20,53,40,57,60,61.7C80,67,100,73,120,71.7C140,70,160,60,180,51.7C200,43,220,37,240,38.3C260,40,280,50,300,50C320,50,340,40,360,33.3C380,27,400,23,420,23.3C440,23,460,27,480,31.7C500,37,520,43,540,53.3C560,63,580,77,600,68.3C620,60,640,30,660,16.7C680,3,700,7,720,13.3C740,20,760,30,780,38.3C800,47,820,53,840,46.7C860,40,880,20,900,13.3C920,7,940,13,960,16.7C980,20,1000,20,1020,31.7C1040,43,1060,67,1080,73.3C1100,80,1120,70,1140,68.3C1160,67,1180,73,1200,71.7C1220,70,1240,60,1260,50C1280,40,1300,30,1320,36.7C1340,43,1360,67,1380,66.7C1400,67,1420,43,1430,31.7L1440,20L1440,100L1430,100C1420,100,1400,100,1380,100C1360,100,1340,100,1320,100C1300,100,1280,100,1260,100C1240,100,1220,100,1200,100C1180,100,1160,100,1140,100C1120,100,1100,100,1080,100C1060,100,1040,100,1020,100C1000,100,980,100,960,100C940,100,920,100,900,100C880,100,860,100,840,100C820,100,800,100,780,100C760,100,740,100,720,100C700,100,680,100,660,100C640,100,620,100,600,100C580,100,560,100,540,100C520,100,500,100,480,100C460,100,440,100,420,100C400,100,380,100,360,100C340,100,320,100,300,100C280,100,260,100,240,100C220,100,200,100,180,100C160,100,140,100,120,100C100,100,80,100,60,100C40,100,20,100,10,100L0,100Z"/><defs><linearGradient id="sw-gradient-1" x1="0" x2="0" y1="1" y2="0"><stop stop-color="rgba(35.243, 22.372, 175.633, 1)" offset="0%"/><stop stop-color="rgba(67.247, 137.841, 168.802, 1)" offset="100%"/></linearGradient></defs><path style="transform:translate(0, 50px); opacity:0.9" fill="url(#sw-gradient-1)" d="M0,60L10,55C20,50,40,40,60,38.3C80,37,100,43,120,51.7C140,60,160,70,180,66.7C200,63,220,47,240,48.3C260,50,280,70,300,78.3C320,87,340,83,360,78.3C380,73,400,67,420,55C440,43,460,27,480,30C500,33,520,57,540,60C560,63,580,47,600,36.7C620,27,640,23,660,26.7C680,30,700,40,720,48.3C740,57,760,63,780,55C800,47,820,23,840,15C860,7,880,13,900,15C920,17,940,13,960,18.3C980,23,1000,37,1020,36.7C1040,37,1060,23,1080,30C1100,37,1120,63,1140,68.3C1160,73,1180,57,1200,41.7C1220,27,1240,13,1260,16.7C1280,20,1300,40,1320,46.7C1340,53,1360,47,1380,41.7C1400,37,1420,33,1430,31.7L1440,30L1440,100L1430,100C1420,100,1400,100,1380,100C1360,100,1340,100,1320,100C1300,100,1280,100,1260,100C1240,100,1220,100,1200,100C1180,100,1160,100,1140,100C1120,100,1100,100,1080,100C1060,100,1040,100,1020,100C1000,100,980,100,960,100C940,100,920,100,900,100C880,100,860,100,840,100C820,100,800,100,780,100C760,100,740,100,720,100C700,100,680,100,660,100C640,100,620,100,600,100C580,100,560,100,540,100C520,100,500,100,480,100C460,100,440,100,420,100C400,100,380,100,360,100C340,100,320,100,300,100C280,100,260,100,240,100C220,100,200,100,180,100C160,100,140,100,120,100C100,100,80,100,60,100C40,100,20,100,10,100L0,100Z"/></svg>